Coordinates
version=1
nRows=17
nColumns=36
inDegrees=yes

Units are S.I. units (second, meters, Newtons, ...)
If the header above contains a line with 'inDegrees', this indicates whether rotational values are in degrees (yes) or radians (no).

endheader
time	pelvis_tilt	pelvis_list	pelvis_rotation	pelvis_tx	pelvis_ty	pelvis_tz	hip_flexion_r	hip_adduction_r	hip_rotation_r	knee_angle_r	knee_angle_r_beta	ankle_angle_r	subtalar_angle_r	mtp_angle_r	hip_flexion_l	hip_adduction_l	hip_rotation_l	knee_angle_l	knee_angle_l_beta	ankle_angle_l	subtalar_angle_l	mtp_angle_l	lumbar_extension	lumbar_bending	lumbar_rotation	arm_flex_r	arm_add_r	arm_rot_r	elbow_flex_r	pro_sup_r	arm_flex_l	arm_add_l	arm_rot_l	elbow_flex_l	pro_sup_l
      1.16250000	    -12.89620491	     -1.55770667	      2.17402532	     -0.80607472	      1.12063276	     -0.06395996	     30.23126675	     -0.51287095	     -3.52367604	     60.11427916	      1.04919210	     36.85982297	     -1.36057723	     -7.49999987	     33.22342688	     -6.79519597	     -1.93206722	     64.30341302	      1.12230628	     34.09282828	      2.53394825	     -7.49999987	    -35.09387415	      0.94300755	      2.38756964	      8.39065740	    -10.30558669	      8.39575032	     40.04296022	     74.68904759	      6.83463703	    -11.25207763	     17.99629962	     44.24904144	     73.42527953
      1.16666670	    -12.71805301	     -1.46236594	      2.12915996	     -0.80193935	      1.11813485	     -0.06510172	     29.95995902	     -0.62178311	     -3.37123831	     60.59972590	      1.05766474	     37.37480658	     -0.62652039	     -7.49999987	     33.05039832	     -6.75948173	     -2.04741980	     64.80324484	      1.13102999	     34.39402254	      2.70764241	     -7.49999987	    -35.27413442	      0.91095888	      2.42745560	      8.58201053	    -10.32585816	      8.12532992	     39.96755327	     74.87066707	      7.16695132	    -11.10811708	     17.73352414	     44.09756378	     73.56726147
      1.17083330	    -12.53299123	     -1.38166699	      2.03694126	     -0.79975048	      1.11756381	     -0.06505475	     29.72576930	     -0.67740285	     -3.16759629	     61.01652562	      1.06493927	     37.92260959	     -0.11929073	     -7.49999987	     32.82263711	     -6.72710777	     -2.10690520	     65.13626407	      1.13684227	     34.55527477	      2.58733879	     -7.49999987	    -35.50957146	      0.86694933	      2.45738068	      8.72349484	    -10.13270710	      6.20205625	     40.05995792	     82.74660949	      7.38056467	    -10.77051957	     16.08116639	     44.05846025	     80.66639318
      1.17500000	    -12.27519862	     -1.31920857	      1.91616851	     -0.79731274	      1.11693790	     -0.06441518	     29.26456780	     -0.70879320	     -3.07616232	     61.26428246	      1.06926344	     38.14152288	     -0.02610257	     -7.49999987	     32.45589171	     -6.74110315	     -2.24448052	     65.44472626	      1.14222595	     34.71519291	      2.38721284	     -7.49999987	    -35.70170743	      0.81362590	      2.53764325	      9.02625129	    -10.18517040	      6.21689744	     39.88855474	     80.35199587	      7.70377543	    -10.61027781	     15.87498660	     44.07203571	     78.43649270
      1.17916670	    -12.02479886	     -1.25004440	      1.77320392	     -0.79591971	      1.11642047	     -0.06427391	     28.91596548	     -0.69318143	     -2.97653454	     61.54762619	      1.07420872	     38.47639808	      0.14185058	     -7.49999987	     32.16470561	     -6.78497245	     -2.25199208	     65.78305295	      1.14813087	     34.86460581	      2.44290783	     -7.49999987	    -36.07498764	      0.75817807	      2.66817837	      9.25348593	    -10.26732566	      5.99842704	     40.26190718	     79.51713027	      7.98528996	    -10.56626058	     15.57157228	     44.55532984	     77.66678118
      1.18333330	    -11.83485747	     -1.13733844	      1.68233442	     -0.79346085	      1.11630273	     -0.06387387	     28.60176126	     -0.76882338	     -2.84242934	     61.83950482	      1.07930297	     38.36798273	     -0.11461380	     -7.49999987	     31.80321112	     -6.75264364	     -2.27701883	     65.84532660	      1.14921775	     34.76463841	      2.07937402	     -7.49999987	    -36.41246788	      0.64546385	      2.61423769	      9.60231356	    -10.12886973	      4.91471344	     40.39880934	     83.70693945	      8.19212285	    -10.43534879	     14.33222311	     44.94365525	     82.08110296
      1.18750000	    -11.60205342	     -1.00658728	      1.58474633	     -0.78976066	      1.11331143	     -0.06442918	     28.35981640	     -0.95391110	     -2.79147026	     62.47572196	      1.09040705	     38.26091846	     -0.59675306	     -7.49999987	     31.37219451	     -6.64323343	     -2.28475796	     66.10327696	      1.15371983	     35.12136253	      2.10907656	     -7.49999987	    -36.60425416	      0.56015904	      2.68433653	      9.82278696	    -10.17450116	      4.70821653	     40.63519488	     82.74627322	      8.47053531	    -10.36658921	     14.16035867	     45.26996422	     81.20845498
      1.19166670	    -11.30505569	     -0.86393707	      1.55686722	     -0.78606929	      1.11462733	     -0.06483569	     27.77026617	     -1.10216753	     -2.67561301	     62.52012394	      1.09118201	     38.11286313	     -0.97517490	     -7.49999987	     30.75074138	     -6.49386827	     -2.29415221	     66.05515536	      1.15287995	     35.31704375	      2.03427888	     -7.49999987	    -36.89474905	      0.48371436	      2.67861993	     10.04779439	    -10.18317520	      4.43874064	     40.86103408	     81.48682077	      8.69097309	    -10.31497264	     13.94210426	     45.64792542	     80.01216162
      1.19583330	    -11.08401050	     -0.70053723	      1.39202521	     -0.78542491	      1.11385609	     -0.06487252	     27.50170473	     -1.28233765	     -2.51535888	     62.76744848	      1.09549864	     37.92005277	     -1.33710303	     -7.49999987	     30.38179287	     -6.32070881	     -2.33199091	     66.27724528	      1.15675615	     35.16805178	      1.79244083	     -7.49999987	    -37.09882208	      0.34513975	      2.70463460	     10.34382173	    -10.21971082	      4.28189620	     41.18613291	     80.52300069	      8.89652310	    -10.31896513	     13.87463169	     46.07881527	     79.13020463
      1.20000000	    -10.92229597	     -0.57999690	      1.34590592	     -0.78211432	      1.11066987	     -0.06512564	     27.25177420	     -1.38569254	     -2.41650210	     63.05045788	      1.10043808	     38.02226668	     -1.56723089	     -7.49999987	     30.23174267	     -6.17383558	     -2.30593843	     66.74493771	      1.16491892	     35.28245744	      1.38788659	     -7.49999987	    -37.16814458	      0.27083023	      2.73268526	     10.52143855	    -10.29722327	      4.16055754	     41.40820281	     80.05621270	      9.08570488	    -10.31166670	     13.87685504	     46.44783116	     78.74425630
      1.20416670	    -10.79806612	     -0.48149458	      1.29705401	     -0.77920948	      1.10933949	     -0.06481411	     26.95880504	     -1.42730673	     -2.33297357	     63.33056969	      1.10532696	     38.25552062	     -1.52658905	     -7.49999987	     30.02788820	     -6.06102628	     -2.32811596	     67.13433947	      1.17171526	     35.51135229	      1.40572756	     -7.49999987	    -37.12668259	      0.21090448	      2.79388036	     10.60072121	    -10.35975710	      3.98473847	     41.82745173	     79.33518690	      9.17211913	    -10.33700868	     13.78343092	     46.98476118	     78.09631205
      1.20833330	    -10.79299099	     -0.43509327	      1.31306863	     -0.77420660	      1.10627768	     -0.06269370	     26.71086358	     -1.35643204	     -2.29844030	     63.49845056	      1.10825703	     38.36518895	     -1.56388649	     -7.49999987	     29.74193899	     -6.06329328	     -2.25003361	     67.33371920	      1.17519510	     35.60923181	      1.39083545	     -7.49999987	    -36.71514105	      0.17221496	      2.79904154	     10.67779415	    -10.34373188	      3.97155660	     41.90165368	     79.36737719	      9.28129387	    -10.38419199	     13.75749677	     47.06030949	     78.13077003
      1.21250000	    -10.87835377	     -0.42512924	      1.31197029	     -0.77187621	      1.10489153	     -0.06445089	     26.63696032	     -1.35579344	     -2.22183044	     63.78562572	      1.11326918	     39.14558096	     -1.18755287	     -7.49999987	     29.76534610	     -6.09287026	     -2.26758718	     67.89671681	      1.18502126	     36.23085285	      1.69267204	     -7.49999987	    -36.33277892	      0.15822574	      2.88079296	     10.41954398	    -10.39158608	      3.71127313	     42.52933356	     78.85697596	      9.10969280	    -10.53324899	     13.63582400	     47.90685802	     77.72626508
      1.21666670	    -10.81770640	     -0.37188086	      1.26009978	     -0.76653057	      1.10713119	     -0.06525158	     26.07798420	     -1.47692314	     -2.15143531	     63.53535800	      1.10890119	     39.12811171	     -0.68409895	     -7.49999987	     29.23977691	     -5.97283127	     -2.27215891	     67.87624827	      1.18466402	     36.17743894	      1.61831046	     -7.49999987	    -36.04792110	      0.13864647	      2.95056173	     10.16423583	    -10.19408930	      1.98148945	     42.99030302	     85.84191242	      8.98623708	    -10.40373424	     12.55555497	     48.30659867	     85.37374670
      1.22083330	    -10.82374074	     -0.34040113	      1.26597390	     -0.76304752	      1.10584726	     -0.06549042	     25.65442416	     -1.52106649	     -2.10862587	     63.26700510	      1.10421755	     39.28185407	     -0.09974139	     -7.49999987	     28.72215401	     -5.87986663	     -2.20173358	     67.65283098	      1.18076465	     36.24197831	      1.71963099	     -7.49999987	    -35.67434857	      0.14670977	      2.95868163	      9.99440229	    -10.23733757	      1.85851005	     43.43527255	     84.63814221	      8.81707740	    -10.43977487	     12.44027469	     48.90768280	     84.21396404
      1.22500000	    -10.83757295	     -0.32828629	      1.21546591	     -0.76035783	      1.10596386	     -0.06685245	     25.23582741	     -1.61696813	     -2.07811121	     62.91618226	      1.09809453	     39.30000297	      0.65490506	     -7.49999987	     28.34286030	     -5.69817735	     -2.04609906	     67.40980818	      1.17652310	     36.26033091	      1.91649339	     -7.49999987	    -35.33339704	      0.19072917	      3.00224518	      9.84345068	    -10.36944844	      1.76511279	     44.03161904	     83.25909635	      8.59510023	    -10.41628276	     12.35155299	     49.69478874	     82.87549223
      1.22916670	    -10.97788431	     -0.26432122	      1.19014904	     -0.75744854	      1.10406261	     -0.06668281	     25.04866604	     -1.74393634	     -1.99855247	     62.72066895	      1.09468218	     39.44380700	      1.20283469	     -7.49999987	     28.25673345	     -5.52799786	     -1.95285249	     67.38031951	      1.17600843	     36.16257830	      1.77946014	     -7.49999987	    -34.80994867	      0.21628168	      2.90258531	      9.91120218	    -10.50325732	      1.88070843	     44.23381076	     85.26552380	      8.38744463	    -10.57983311	     12.31924840	     50.30269298	     85.28410518
